<?xml version="1.0" encoding="UTF-8" standalone="no"?>
<svg
   xmlns:dc="http://purl.org/dc/elements/1.1/"
   xmlns:cc="http://creativecommons.org/ns#"
   xmlns:rdf="http://www.w3.org/1999/02/22-rdf-syntax-ns#"
   xmlns:svg="http://www.w3.org/2000/svg"
   xmlns="http://www.w3.org/2000/svg"
   xmlns:sodipodi="http://sodipodi.sourceforge.net/DTD/sodipodi-0.dtd"
   xmlns:inkscape="http://www.inkscape.org/namespaces/inkscape"
   version="1.1"
   id="svg2"
   height="44.113129"
   width="314.56464"
   sodipodi:docname="about-wordmark.svg"
   inkscape:version="1.0.2 (e86c870879, 2021-01-15)">
  <sodipodi:namedview
     pagecolor="#ffffff"
     bordercolor="#666666"
     borderopacity="1"
     objecttolerance="10"
     gridtolerance="10"
     guidetolerance="10"
     inkscape:pageopacity="0"
     inkscape:pageshadow="2"
     inkscape:window-width="1918"
     inkscape:window-height="1168"
     id="namedview188"
     showgrid="false"
     inkscape:zoom="3.3358691"
     inkscape:cx="140.22297"
     inkscape:cy="22.939382"
     inkscape:window-x="0"
     inkscape:window-y="0"
     inkscape:window-maximized="1"
     inkscape:current-layer="svg2" />
  <defs
     id="defs4">
    <filter
       id="filter4610"
       style="color-interpolation-filters:sRGB">
      <feFlood
         id="feFlood4600"
         result="flood"
         flood-color="rgb(252,252,247)"
         flood-opacity="1" />
      <feComposite
         id="feComposite4602"
         result="composite1"
         operator="in"
         in2="SourceGraphic"
         in="flood" />
      <feGaussianBlur
         id="feGaussianBlur4604"
         result="blur"
         stdDeviation="1"
         in="composite1" />
      <feOffset
         id="feOffset4606"
         result="offset"
         dy="0"
         dx="2.77556e-017" />
      <feComposite
         id="feComposite4608"
         result="composite2"
         operator="over"
         in2="offset"
         in="SourceGraphic" />
    </filter>
  </defs>
  <metadata
     id="metadata7">
    <rdf:RDF>
      <cc:Work
         rdf:about="">
        <dc:format>image/svg+xml</dc:format>
        <dc:type
           rdf:resource="http://purl.org/dc/dcmitype/StillImage" />
        <dc:title />
      </cc:Work>
    </rdf:RDF>
  </metadata>
  <g
     transform="translate(-29.067649,-53.687969)"
     id="layer1">
    <text
       id="text2985"
       y="32.093662"
       x="34.479874"
       style="font-style:normal;font-weight:normal;font-size:12.80000019px;line-height:0%;font-family:'Museo 500';-inkscape-font-specification:'Museo 500';letter-spacing:0px;word-spacing:0px;fill:#000000;fill-opacity:1;stroke:none;stroke-width:1.06666672"
       xml:space="preserve"><tspan
         style="font-size:51.20000076px;line-height:1.25;stroke-width:1.06666672"
         y="32.093662"
         x="34.479874"
         id="tspan2987"> </tspan></text>
    <flowRoot
       style="font-style:normal;font-weight:normal;font-size:12.80000019px;line-height:0.01%;font-family:'Museo 500';-inkscape-font-specification:'Museo 500';letter-spacing:0px;word-spacing:0px;fill:#000000;fill-opacity:1;stroke:none;stroke-width:1.06666672"
       id="flowRoot2989"
       xml:space="preserve"><flowRegion
         style="stroke-width:1.06666672"
         id="flowRegion2991"><rect
           style="stroke-width:1.13777781"
           y="111.82838"
           x="47.409828"
           height="396.51855"
           width="698.21747"
           id="rect2993" /></flowRegion><flowPara
         style="font-size:51.20000076px;line-height:1.25;stroke-width:1.06666672"
         id="flowPara2995"> </flowPara></flowRoot>
    <g
       id="text2997"
       style="font-style:normal;font-weight:normal;font-size:48px;line-height:125%;font-family:'Museo 500';-inkscape-font-specification:'Museo 500';letter-spacing:0px;word-spacing:0px;fill:#0b3575;fill-opacity:1;stroke:none;filter:url(#filter4610)" />
  </g>
  <g
     aria-label="Male Poon"
     id="text225"
     style="font-size:52.1184px;line-height:1.25;font-family:Museo;-inkscape-font-specification:Museo;fill:#ed0100;fill-opacity:1;stroke-width:1.30296">
    <path
       style="color:#000000;font-style:normal;font-variant:normal;font-weight:normal;font-stretch:normal;font-size:medium;line-height:1.25;font-family:Museo;-inkscape-font-specification:Museo;font-variant-ligatures:normal;font-variant-position:normal;font-variant-caps:normal;font-variant-numeric:normal;font-variant-alternates:normal;font-variant-east-asian:normal;font-feature-settings:normal;font-variation-settings:normal;text-indent:0;text-align:start;text-decoration:none;text-decoration-line:none;text-decoration-style:solid;text-decoration-color:#000000;letter-spacing:normal;word-spacing:normal;text-transform:none;writing-mode:lr-tb;direction:ltr;text-orientation:mixed;dominant-baseline:auto;baseline-shift:baseline;text-anchor:start;white-space:normal;shape-padding:0;shape-margin:0;inline-size:0;clip-rule:nonzero;display:inline;overflow:visible;visibility:visible;isolation:auto;mix-blend-mode:normal;color-interpolation:sRGB;color-interpolation-filters:linearRGB;solid-color:#000000;solid-opacity:1;vector-effect:none;fill:#ed0100;fill-opacity:1;fill-rule:nonzero;stroke-width:1.30296;stroke-linecap:butt;stroke-linejoin:miter;stroke-miterlimit:4;stroke-dasharray:none;stroke-dashoffset:0;stroke-opacity:1;color-rendering:auto;image-rendering:auto;shape-rendering:auto;text-rendering:auto;enable-background:accumulate;stop-color:#000000;stop-opacity:1;stroke:none;opacity:1"
       d="m 30.061562,40.141651 h 4.638537 c 2.397447,0 3.231341,-0.990249 3.387696,-3.335577 L 39.547111,17.36591 c 0.156355,-2.188973 0.104236,-5.472432 0.104236,-5.472432 h 0.104237 c 0,0 1.094487,3.544051 1.980499,5.472432 l 7.452932,16.156704 H 53.56696 L 61.019892,17.36591 c 0.886012,-1.980499 1.92838,-5.420314 1.92838,-5.420314 h 0.104237 c 0,0 -0.05212,3.231341 0.104237,5.420314 l 1.511434,19.440164 c 0.156355,2.345328 0.990249,3.335577 3.335577,3.335577 h 4.638538 v -4.482182 h -1.719907 c -0.729658,0 -1.094487,-0.416948 -1.146605,-1.146605 L 67.2741,3.3460603 H 61.905904 L 53.25425,22.838342 c -0.886013,1.980499 -1.824144,4.638538 -1.824144,4.638538 h -0.104237 c 0,0 -0.938131,-2.658039 -1.824144,-4.638538 L 40.850071,3.3460603 H 35.481875 L 32.980192,34.512864 c -0.05212,0.729657 -0.416947,1.146605 -1.146605,1.146605 h -1.772025 z"
       id="path1116" />
    <path
       style="color:#000000;font-style:normal;font-variant:normal;font-weight:normal;font-stretch:normal;font-size:medium;line-height:1.25;font-family:Museo;-inkscape-font-specification:Museo;font-variant-ligatures:normal;font-variant-position:normal;font-variant-caps:normal;font-variant-numeric:normal;font-variant-alternates:normal;font-variant-east-asian:normal;font-feature-settings:normal;font-variation-settings:normal;text-indent:0;text-align:start;text-decoration:none;text-decoration-line:none;text-decoration-style:solid;text-decoration-color:#000000;letter-spacing:normal;word-spacing:normal;text-transform:none;writing-mode:lr-tb;direction:ltr;text-orientation:mixed;dominant-baseline:auto;baseline-shift:baseline;text-anchor:start;white-space:normal;shape-padding:0;shape-margin:0;inline-size:0;clip-rule:nonzero;display:inline;overflow:visible;visibility:visible;isolation:auto;mix-blend-mode:normal;color-interpolation:sRGB;color-interpolation-filters:linearRGB;solid-color:#000000;solid-opacity:1;vector-effect:none;fill:#ed0100;fill-opacity:1;fill-rule:nonzero;stroke-width:1.30296;stroke-linecap:butt;stroke-linejoin:miter;stroke-miterlimit:4;stroke-dasharray:none;stroke-dashoffset:0;stroke-opacity:1;color-rendering:auto;image-rendering:auto;shape-rendering:auto;text-rendering:auto;enable-background:accumulate;stop-color:#000000;stop-opacity:1;stroke:none;opacity:1"
       d="m 75.612964,32.740838 c 0,5.263959 4.430065,8.026234 8.964365,8.026234 6.306327,0 8.391063,-5.21184 8.391063,-5.21184 h 0.104237 c 0,0 -0.104237,0.677539 -0.104237,1.563552 0,1.876262 0.938131,3.022867 3.283459,3.022867 h 4.742779 v -4.325827 h -2.136859 c -0.729657,0 -1.146605,-0.364829 -1.146605,-1.146605 V 23.463763 c 0,-5.837261 -2.293209,-10.319443 -10.840627,-10.319443 -2.553802,0 -9.12072,0.62542 -9.12072,4.951248 v 2.60592 h 4.742774 v -1.511434 c 0,-1.719907 3.074986,-2.032617 4.325828,-2.032617 4.117353,0 5.83726,1.667788 5.83726,6.306326 v 0.260592 h -1.146604 c -4.430064,0 -15.896113,0.521184 -15.896113,9.016483 z m 5.107604,-0.260592 c 0,-4.847011 6.879629,-5.055485 10.684272,-5.055485 h 1.30296 v 0.886013 c 0,3.90888 -2.762275,8.391063 -7.035984,8.391063 -3.335578,0 -4.951248,-2.084736 -4.951248,-4.221591 z"
       id="path1118" />
    <path
       style="color:#000000;font-style:normal;font-variant:normal;font-weight:normal;font-stretch:normal;font-size:medium;line-height:1.25;font-family:Museo;-inkscape-font-specification:Museo;font-variant-ligatures:normal;font-variant-position:normal;font-variant-caps:normal;font-variant-numeric:normal;font-variant-alternates:normal;font-variant-east-asian:normal;font-feature-settings:normal;font-variation-settings:normal;text-indent:0;text-align:start;text-decoration:none;text-decoration-line:none;text-decoration-style:solid;text-decoration-color:#000000;letter-spacing:normal;word-spacing:normal;text-transform:none;writing-mode:lr-tb;direction:ltr;text-orientation:mixed;dominant-baseline:auto;baseline-shift:baseline;text-anchor:start;white-space:normal;shape-padding:0;shape-margin:0;inline-size:0;clip-rule:nonzero;display:inline;overflow:visible;visibility:visible;isolation:auto;mix-blend-mode:normal;color-interpolation:sRGB;color-interpolation-filters:linearRGB;solid-color:#000000;solid-opacity:1;vector-effect:none;fill:#ed0100;fill-opacity:1;fill-rule:nonzero;stroke-width:1.30296;stroke-linecap:butt;stroke-linejoin:miter;stroke-miterlimit:4;stroke-dasharray:none;stroke-dashoffset:0;stroke-opacity:1;color-rendering:auto;image-rendering:auto;shape-rendering:auto;text-rendering:auto;enable-background:accumulate;stop-color:#000000;stop-opacity:1;stroke:none;opacity:1"
       d="m 106.36275,36.806074 c 0,2.345328 0.99025,3.335577 3.33558,3.335577 h 5.00337 v -4.325827 h -2.13686 c -0.72966,0 -1.1466,-0.364829 -1.1466,-1.146605 V 6.681638 c 0,-2.345328 -0.99025,-3.3355777 -3.33558,-3.3355777 h -5.00337 v 4.3258273 h 2.13686 c 0.72965,0 1.1466,0.3648288 1.1466,1.1466048 z"
       id="path1120" />
    <path
       style="color:#000000;font-style:normal;font-variant:normal;font-weight:normal;font-stretch:normal;font-size:medium;line-height:1.25;font-family:Museo;-inkscape-font-specification:Museo;font-variant-ligatures:normal;font-variant-position:normal;font-variant-caps:normal;font-variant-numeric:normal;font-variant-alternates:normal;font-variant-east-asian:normal;font-feature-settings:normal;font-variation-settings:normal;text-indent:0;text-align:start;text-decoration:none;text-decoration-line:none;text-decoration-style:solid;text-decoration-color:#000000;letter-spacing:normal;word-spacing:normal;text-transform:none;writing-mode:lr-tb;direction:ltr;text-orientation:mixed;dominant-baseline:auto;baseline-shift:baseline;text-anchor:start;white-space:normal;shape-padding:0;shape-margin:0;inline-size:0;clip-rule:nonzero;display:inline;overflow:visible;visibility:visible;isolation:auto;mix-blend-mode:normal;color-interpolation:sRGB;color-interpolation-filters:linearRGB;solid-color:#000000;solid-opacity:1;vector-effect:none;fill:#ed0100;fill-opacity:1;fill-rule:nonzero;stroke-width:1.30296;stroke-linecap:butt;stroke-linejoin:miter;stroke-miterlimit:4;stroke-dasharray:none;stroke-dashoffset:0;stroke-opacity:1;color-rendering:auto;image-rendering:auto;shape-rendering:auto;text-rendering:auto;enable-background:accumulate;stop-color:#000000;stop-opacity:1;stroke:none;opacity:1"
       d="m 117.8809,26.955696 c 0,7.81776 5.6809,13.811376 14.01985,13.811376 6.25421,0 10.16309,-3.856762 10.16309,-3.856762 l -2.18898,-3.596169 c 0,0 -3.17922,3.074985 -7.71352,3.074985 -4.69066,0 -8.75589,-3.179222 -9.0686,-8.808009 h 19.23169 c 0,0 0.15635,-1.407197 0.15635,-2.084736 0,-6.827511 -3.96099,-12.352061 -11.36181,-12.352061 -7.50505,0 -13.23807,5.420313 -13.23807,13.811376 z m 5.42031,-3.074986 c 0.78178,-4.377945 3.90888,-6.723273 7.76564,-6.723273 3.28346,0 6.04574,2.345328 6.20209,6.723273 z"
       id="path1122" />
    <path
       style="color:#000000;font-style:normal;font-variant:normal;font-weight:normal;font-stretch:normal;font-size:medium;line-height:1.25;font-family:Museo;-inkscape-font-specification:Museo;font-variant-ligatures:normal;font-variant-position:normal;font-variant-caps:normal;font-variant-numeric:normal;font-variant-alternates:normal;font-variant-east-asian:normal;font-feature-settings:normal;font-variation-settings:normal;text-indent:0;text-align:start;text-decoration:none;text-decoration-line:none;text-decoration-style:solid;text-decoration-color:#000000;letter-spacing:normal;word-spacing:normal;text-transform:none;writing-mode:lr-tb;direction:ltr;text-orientation:mixed;dominant-baseline:auto;baseline-shift:baseline;text-anchor:start;white-space:normal;shape-padding:0;shape-margin:0;inline-size:0;clip-rule:nonzero;display:inline;overflow:visible;visibility:visible;isolation:auto;mix-blend-mode:normal;color-interpolation:sRGB;color-interpolation-filters:linearRGB;solid-color:#000000;solid-opacity:1;vector-effect:none;fill:#ed0100;fill-opacity:1;fill-rule:nonzero;stroke-width:1.30296;stroke-linecap:butt;stroke-linejoin:miter;stroke-miterlimit:4;stroke-dasharray:none;stroke-dashoffset:0;stroke-opacity:1;color-rendering:auto;image-rendering:auto;shape-rendering:auto;text-rendering:auto;enable-background:accumulate;stop-color:#000000;stop-opacity:1;stroke:none;opacity:1"
       d="m 164.16189,40.141651 h 5.21184 V 26.538749 h 7.60929 c 6.72327,0 11.51817,-4.690656 11.51817,-11.674522 0,-6.9838658 -4.7949,-11.5181667 -11.51817,-11.5181667 H 160.7742 v 4.4821825 h 3.38769 z m 5.21184,-18.085085 V 7.8282428 h 6.82752 c 4.2737,0 6.93174,2.6059202 6.93174,7.0359842 0,4.430064 -2.65804,7.192339 -6.98386,7.192339 z"
       id="path1124" />
    <path
       style="color:#000000;font-style:normal;font-variant:normal;font-weight:normal;font-stretch:normal;font-size:medium;line-height:1.25;font-family:Museo;-inkscape-font-specification:Museo;font-variant-ligatures:normal;font-variant-position:normal;font-variant-caps:normal;font-variant-numeric:normal;font-variant-alternates:normal;font-variant-east-asian:normal;font-feature-settings:normal;font-variation-settings:normal;text-indent:0;text-align:start;text-decoration:none;text-decoration-line:none;text-decoration-style:solid;text-decoration-color:#000000;letter-spacing:normal;word-spacing:normal;text-transform:none;writing-mode:lr-tb;direction:ltr;text-orientation:mixed;dominant-baseline:auto;baseline-shift:baseline;text-anchor:start;white-space:normal;shape-padding:0;shape-margin:0;inline-size:0;clip-rule:nonzero;display:inline;overflow:visible;visibility:visible;isolation:auto;mix-blend-mode:normal;color-interpolation:sRGB;color-interpolation-filters:linearRGB;solid-color:#000000;solid-opacity:1;vector-effect:none;fill:#ed0100;fill-opacity:1;fill-rule:nonzero;stroke-width:1.30296;stroke-linecap:butt;stroke-linejoin:miter;stroke-miterlimit:4;stroke-dasharray:none;stroke-dashoffset:0;stroke-opacity:1;color-rendering:auto;image-rendering:auto;shape-rendering:auto;text-rendering:auto;enable-background:accumulate;stop-color:#000000;stop-opacity:1;stroke:none;opacity:1"
       d="m 190.48162,26.903577 c 0,8.026234 6.30633,13.863495 14.17621,13.863495 7.86988,0 14.22832,-5.837261 14.22832,-13.863495 0,-7.974115 -6.35844,-13.759257 -14.22832,-13.759257 -7.86988,0 -14.17621,5.785142 -14.17621,13.759257 z m 5.15972,0 c 0,-5.472432 4.06524,-9.381312 9.01649,-9.381312 5.00336,0 9.0686,3.90888 9.0686,9.381312 0,5.524551 -4.06524,9.485549 -9.0686,9.485549 -4.95125,0 -9.01649,-3.960998 -9.01649,-9.485549 z"
       id="path1126" />
    <path
       style="color:#000000;font-style:normal;font-variant:normal;font-weight:normal;font-stretch:normal;font-size:medium;line-height:1.25;font-family:Museo;-inkscape-font-specification:Museo;font-variant-ligatures:normal;font-variant-position:normal;font-variant-caps:normal;font-variant-numeric:normal;font-variant-alternates:normal;font-variant-east-asian:normal;font-feature-settings:normal;font-variation-settings:normal;text-indent:0;text-align:start;text-decoration:none;text-decoration-line:none;text-decoration-style:solid;text-decoration-color:#000000;letter-spacing:normal;word-spacing:normal;text-transform:none;writing-mode:lr-tb;direction:ltr;text-orientation:mixed;dominant-baseline:auto;baseline-shift:baseline;text-anchor:start;white-space:normal;shape-padding:0;shape-margin:0;inline-size:0;clip-rule:nonzero;display:inline;overflow:visible;visibility:visible;isolation:auto;mix-blend-mode:normal;color-interpolation:sRGB;color-interpolation-filters:linearRGB;solid-color:#000000;solid-opacity:1;vector-effect:none;fill:#ed0100;fill-opacity:1;fill-rule:nonzero;stroke-width:1.30296;stroke-linecap:butt;stroke-linejoin:miter;stroke-miterlimit:4;stroke-dasharray:none;stroke-dashoffset:0;stroke-opacity:1;color-rendering:auto;image-rendering:auto;shape-rendering:auto;text-rendering:auto;enable-background:accumulate;stop-color:#000000;stop-opacity:1;stroke:none;opacity:1"
       d="m 222.6386,26.903577 c 0,8.026234 6.30633,13.863495 14.17621,13.863495 7.86988,0 14.22832,-5.837261 14.22832,-13.863495 0,-7.974115 -6.35844,-13.759257 -14.22832,-13.759257 -7.86988,0 -14.17621,5.785142 -14.17621,13.759257 z m 5.15973,0 c 0,-5.472432 4.06523,-9.381312 9.01648,-9.381312 5.00337,0 9.0686,3.90888 9.0686,9.381312 0,5.524551 -4.06523,9.485549 -9.0686,9.485549 -4.95125,0 -9.01648,-3.960998 -9.01648,-9.485549 z"
       id="path1128" />
    <path
       style="color:#000000;font-style:normal;font-variant:normal;font-weight:normal;font-stretch:normal;font-size:medium;line-height:1.25;font-family:Museo;-inkscape-font-specification:Museo;font-variant-ligatures:normal;font-variant-position:normal;font-variant-caps:normal;font-variant-numeric:normal;font-variant-alternates:normal;font-variant-east-asian:normal;font-feature-settings:normal;font-variation-settings:normal;text-indent:0;text-align:start;text-decoration:none;text-decoration-line:none;text-decoration-style:solid;text-decoration-color:#000000;letter-spacing:normal;word-spacing:normal;text-transform:none;writing-mode:lr-tb;direction:ltr;text-orientation:mixed;dominant-baseline:auto;baseline-shift:baseline;text-anchor:start;white-space:normal;shape-padding:0;shape-margin:0;inline-size:0;clip-rule:nonzero;display:inline;overflow:visible;visibility:visible;isolation:auto;mix-blend-mode:normal;color-interpolation:sRGB;color-interpolation-filters:linearRGB;solid-color:#000000;solid-opacity:1;vector-effect:none;fill:#ed0100;fill-opacity:1;fill-rule:nonzero;stroke-width:1.30296;stroke-linecap:butt;stroke-linejoin:miter;stroke-miterlimit:4;stroke-dasharray:none;stroke-dashoffset:0;stroke-opacity:1;color-rendering:auto;image-rendering:auto;shape-rendering:auto;text-rendering:auto;enable-background:accumulate;stop-color:#000000;stop-opacity:1;stroke:none;opacity:1"
       d="m 257.34939,40.141651 h 5.05548 V 27.78959 c 0,-1.30296 0.10424,-2.501683 0.46907,-3.544051 1.04237,-3.804643 4.27371,-6.462682 8.33894,-6.462682 4.22159,0 4.95125,2.918631 4.95125,6.619037 v 12.40418 c 0,2.345328 0.99025,3.335577 3.33558,3.335577 h 5.00337 v -4.325827 h -2.13686 c -0.72966,0 -1.1466,-0.364829 -1.1466,-1.146605 v -11.41393 c 0,-6.723273 -2.8144,-10.110969 -9.06861,-10.110969 -5.73302,0 -8.86012,3.752524 -9.90249,6.045734 h -0.10424 c 0,0 0.10424,-0.677539 0.10424,-1.511433 v -0.99025 c 0,-1.928381 -1.09449,-2.918631 -3.33558,-2.918631 h -4.84701 v 4.325828 h 2.13685 c 0.72966,0 1.14661,0.364829 1.14661,1.146605 z"
       id="path1130" />
  </g>
</svg>
